<svg width="139" height="96" viewBox="0 0 139 96" fill="none" xmlns="http://www.w3.org/2000/svg">
<path d="M44.9059 40L44.9059 17.6L56.8739 17.6C59.9672 17.6 62.2499 18.1547 63.7219 19.264C65.1939 20.352 65.9299 21.7493 65.9299 23.456C65.9299 24.5867 65.6099 25.6 64.9699 26.496C64.3512 27.3707 63.4445 28.064 62.2499 28.576C61.0552 29.088 59.5832 29.344 57.8339 29.344L58.4739 27.616C60.2232 27.616 61.7272 27.8613 62.9859 28.352C64.2659 28.8427 65.2472 29.5573 65.9299 30.496C66.6339 31.4133 66.9859 32.5227 66.9859 33.824C66.9859 35.7653 66.1752 37.28 64.5539 38.368C62.9539 39.456 60.6072 40 57.5139 40L44.9059 40ZM52.3299 34.72L56.8739 34.72C57.7059 34.72 58.3245 34.5707 58.7299 34.272C59.1565 33.9733 59.3699 33.536 59.3699 32.96C59.3699 32.384 59.1565 31.9467 58.7299 31.648C58.3245 31.3493 57.7059 31.2 56.8739 31.2L51.8179 31.2L51.8179 26.208L55.8499 26.208C56.7032 26.208 57.3219 26.0693 57.7059 25.792C58.1112 25.4933 58.3139 25.0773 58.3139 24.544C58.3139 23.9893 58.1112 23.5733 57.7059 23.296C57.3219 23.0187 56.7032 22.88 55.8499 22.88L52.3299 22.88L52.3299 34.72ZM81.6559 40.32C79.5225 40.32 77.6559 39.9253 76.0559 39.136C74.4772 38.3467 73.2505 37.2693 72.3759 35.904C71.5012 34.5173 71.0639 32.96 71.0639 31.232C71.0639 29.4613 71.4905 27.8933 72.3439 26.528C73.2185 25.1627 74.4025 24.096 75.8959 23.328C77.4105 22.56 79.1065 22.176 80.9839 22.176C82.7119 22.176 84.3012 22.5173 85.7519 23.2C87.2239 23.8827 88.3972 24.896 89.2719 26.24C90.1679 27.584 90.6159 29.248 90.6159 31.232C90.6159 31.488 90.6052 31.776 90.5839 32.096C90.5625 32.3947 90.5412 32.672 90.5199 32.928L77.0479 32.928L77.0479 29.44L86.6799 29.44L83.9599 30.368C83.9599 29.6853 83.8319 29.1093 83.5759 28.64C83.3412 28.1493 83.0105 27.776 82.5839 27.52C82.1572 27.2427 81.6452 27.104 81.0479 27.104C80.4505 27.104 79.9279 27.2427 79.4799 27.52C79.0532 27.776 78.7225 28.1493 78.4879 28.64C78.2532 29.1093 78.1359 29.6853 78.1359 30.368V31.456C78.1359 32.2027 78.2852 32.8427 78.5839 33.376C78.8825 33.9093 79.3092 34.3147 79.8639 34.592C80.4185 34.848 81.0905 34.976 81.8799 34.976C82.6905 34.976 83.3519 34.8693 83.8639 34.656C84.3972 34.4427 84.9519 34.1227 85.5279 33.696L89.3039 37.504C88.4505 38.4213 87.3945 39.1253 86.1359 39.616C84.8985 40.0853 83.4052 40.32 81.6559 40.32ZM105.122 40.32C102.989 40.32 101.122 39.9253 99.5221 39.136C97.9435 38.3467 96.7168 37.2693 95.8421 35.904C94.9675 34.5173 94.5301 32.96 94.5301 31.232C94.5301 29.4613 94.9568 27.8933 95.8101 26.528C96.6848 25.1627 97.8688 24.096 99.3621 23.328C100.877 22.56 102.573 22.176 104.45 22.176C106.178 22.176 107.767 22.5173 109.218 23.2C110.69 23.8827 111.863 24.896 112.738 26.24C113.634 27.584 114.082 29.248 114.082 31.232C114.082 31.488 114.071 31.776 114.05 32.096C114.029 32.3947 114.007 32.672 113.986 32.928L100.514 32.928L100.514 29.44L110.146 29.44L107.426 30.368C107.426 29.6853 107.298 29.1093 107.042 28.64C106.807 28.1493 106.477 27.776 106.05 27.52C105.623 27.2427 105.111 27.104 104.514 27.104C103.917 27.104 103.394 27.2427 102.946 27.52C102.519 27.776 102.189 28.1493 101.954 28.64C101.719 29.1093 101.602 29.6853 101.602 30.368V31.456C101.602 32.2027 101.751 32.8427 102.05 33.376C102.349 33.9093 102.775 34.3147 103.33 34.592C103.885 34.848 104.557 34.976 105.346 34.976C106.157 34.976 106.818 34.8693 107.33 34.656C107.863 34.4427 108.418 34.1227 108.994 33.696L112.77 37.504C111.917 38.4213 110.861 39.1253 109.602 39.616C108.365 40.0853 106.871 40.32 105.122 40.32ZM118.924 40L118.924 22.496L125.804 22.496V27.776L124.684 26.272C125.218 24.9067 126.071 23.8827 127.244 23.2C128.418 22.5173 129.826 22.176 131.468 22.176V28.576C131.148 28.5333 130.86 28.5013 130.604 28.48C130.37 28.4587 130.124 28.448 129.868 28.448C128.78 28.448 127.884 28.736 127.18 29.312C126.498 29.8667 126.156 30.8373 126.156 32.224L126.156 40L118.924 40Z" fill="#5AB0BB"/>
<path d="M53.3829 79.512C51.5055 79.512 49.6922 79.2987 47.9429 78.872C46.1935 78.4453 44.7535 77.8907 43.6229 77.208L46.0549 71.704C47.1215 72.3227 48.3055 72.824 49.6069 73.208C50.9295 73.5707 52.2095 73.752 53.4469 73.752C54.1722 73.752 54.7375 73.7093 55.1429 73.624C55.5695 73.5173 55.8789 73.3787 56.0709 73.208C56.2629 73.016 56.3589 72.792 56.3589 72.536C56.3589 72.1307 56.1349 71.8107 55.6869 71.576C55.2389 71.3413 54.6415 71.1493 53.8949 71C53.1695 70.8293 52.3695 70.6587 51.4949 70.488C50.6202 70.296 49.7349 70.0507 48.8389 69.752C47.9642 69.4533 47.1535 69.0587 46.4069 68.568C45.6815 68.0773 45.0949 67.4373 44.6469 66.648C44.1989 65.8373 43.9749 64.8347 43.9749 63.64C43.9749 62.2533 44.3589 60.9947 45.1269 59.864C45.9162 58.712 47.0789 57.7947 48.6149 57.112C50.1722 56.4293 52.1029 56.088 54.4069 56.088C55.9215 56.088 57.4149 56.248 58.8869 56.568C60.3589 56.888 61.6815 57.3787 62.8549 58.04L60.5829 63.512C59.4735 62.9573 58.3962 62.5413 57.3509 62.264C56.3269 61.9867 55.3242 61.848 54.3429 61.848C53.6175 61.848 53.0415 61.912 52.6149 62.04C52.1882 62.168 51.8789 62.3387 51.6869 62.552C51.5162 62.7653 51.4309 63 51.4309 63.256C51.4309 63.64 51.6549 63.9493 52.1029 64.184C52.5509 64.3973 53.1375 64.5787 53.8629 64.728C54.6095 64.8773 55.4202 65.0373 56.2949 65.208C57.1909 65.3787 58.0762 65.6133 58.9509 65.912C59.8255 66.2107 60.6255 66.6053 61.3509 67.096C62.0975 67.5867 62.6949 68.2267 63.1429 69.016C63.5909 69.8053 63.8149 70.7867 63.8149 71.96C63.8149 73.3253 63.4202 74.584 62.6309 75.736C61.8629 76.8667 60.7109 77.784 59.1749 78.488C57.6389 79.1707 55.7082 79.512 53.3829 79.512ZM80.5581 61.176C81.9021 61.176 83.1181 61.4533 84.2061 62.008C85.2941 62.5413 86.1475 63.384 86.7661 64.536C87.4061 65.688 87.7261 67.1813 87.7261 69.016L87.7261 79L80.4941 79L80.4941 70.264C80.4941 69.176 80.3021 68.408 79.9181 67.96C79.5341 67.4907 79.0115 67.256 78.3501 67.256C77.8595 67.256 77.4008 67.3733 76.9741 67.608C76.5688 67.8213 76.2381 68.184 75.9821 68.696C75.7475 69.208 75.6301 69.9013 75.6301 70.776L75.6301 79L68.3981 79L68.3981 55.256L75.6301 55.256L75.6301 66.616L73.9021 65.144C74.5848 63.8213 75.5021 62.8293 76.6541 62.168C77.8275 61.5067 79.1288 61.176 80.5581 61.176ZM102.987 79.32C101.003 79.32 99.2434 78.936 97.7074 78.168C96.1927 77.3787 94.998 76.3013 94.1234 74.936C93.2487 73.5707 92.8114 72.0027 92.8114 70.232C92.8114 68.4613 93.2487 66.8933 94.1234 65.528C94.998 64.1627 96.1927 63.096 97.7074 62.328C99.2434 61.56 101.003 61.176 102.987 61.176C104.971 61.176 106.731 61.56 108.267 62.328C109.803 63.096 110.998 64.1627 111.851 65.528C112.726 66.8933 113.163 68.4613 113.163 70.232C113.163 72.0027 112.726 73.5707 111.851 74.936C110.998 76.3013 109.803 77.3787 108.267 78.168C106.731 78.936 104.971 79.32 102.987 79.32ZM102.987 73.688C103.521 73.688 104.001 73.56 104.427 73.304C104.854 73.048 105.195 72.664 105.451 72.152C105.707 71.6187 105.835 70.9787 105.835 70.232C105.835 69.464 105.707 68.8347 105.451 68.344C105.195 67.832 104.854 67.448 104.427 67.192C104.001 66.936 103.521 66.808 102.987 66.808C102.454 66.808 101.974 66.936 101.547 67.192C101.121 67.448 100.779 67.832 100.523 68.344C100.267 68.8347 100.139 69.464 100.139 70.232C100.139 70.9787 100.267 71.6187 100.523 72.152C100.779 72.664 101.121 73.048 101.547 73.304C101.974 73.56 102.454 73.688 102.987 73.688ZM129.667 79.32C128.152 79.32 126.894 79 125.891 78.36C124.91 77.6987 124.184 76.7067 123.715 75.384C123.246 74.04 123.011 72.3333 123.011 70.264C123.011 68.152 123.224 66.4347 123.651 65.112C124.099 63.768 124.814 62.776 125.795 62.136C126.776 61.496 128.067 61.176 129.667 61.176C131.203 61.176 132.611 61.5493 133.891 62.296C135.171 63.0213 136.195 64.0667 136.963 65.432C137.731 66.776 138.115 68.3867 138.115 70.264C138.115 72.1413 137.731 73.7627 136.963 75.128C136.195 76.472 135.171 77.5067 133.891 78.232C132.611 78.9573 131.203 79.32 129.667 79.32ZM117.987 85.208L117.987 61.496L124.867 61.496V63.864L124.899 70.264L125.219 76.664L125.219 85.208L117.987 85.208ZM127.939 73.688C128.472 73.688 128.952 73.56 129.379 73.304C129.806 73.048 130.147 72.664 130.403 72.152C130.659 71.64 130.787 71.0107 130.787 70.264C130.787 69.496 130.659 68.856 130.403 68.344C130.147 67.832 129.806 67.448 129.379 67.192C128.952 66.936 128.472 66.808 127.939 66.808C127.406 66.808 126.926 66.936 126.499 67.192C126.072 67.448 125.731 67.832 125.475 68.344C125.219 68.856 125.091 69.496 125.091 70.264C125.091 71.0107 125.219 71.64 125.475 72.152C125.731 72.664 126.072 73.048 126.499 73.304C126.926 73.56 127.406 73.688 127.939 73.688Z" fill="black"/>
<rect x="6.2334" y="1.87012" width="16.8312" height="8.72727" fill="black"/>
<rect x="3.11719" y="10.5974" width="22.4416" height="8.72727" fill="black"/>
<rect x="3.11719" y="19.3246" width="22.4416" height="8.72727" fill="black"/>
<rect x="1.24707" y="28.0519" width="26.1818" height="8.72727" fill="black"/>
<rect x="1.24707" y="92.2598" width="26.1818" height="3.74026" fill="black"/>
<rect y="36.7792" width="28.6753" height="55.4805" fill="black"/>
<rect x="6.2334" width="16.8312" height="1.87013" fill="#5AB0BB"/>
<rect x="3.11719" y="39.8961" width="7.48052" height="46.1299" fill="#5AB0BB"/>
<rect x="14.3379" y="39.8961" width="11.2208" height="46.1299" fill="#5AB0BB"/>
</svg>
