<svg width="45" height="25" viewBox="0 0 45 25" fill="none" xmlns="http://www.w3.org/2000/svg">
<path d="M0 4C0 1.79086 1.79086 0 4 0H41C43.2091 0 45 1.79086 45 4V21C45 23.2091 43.2091 25 41 25H4C1.79086 25 0 23.2091 0 21V4Z" fill="#66318D"/>
<path d="M16.526 8.902C16.482 8.99 16.43 9.052 16.37 9.088C16.314 9.124 16.246 9.142 16.166 9.142C16.086 9.142 15.996 9.112 15.896 9.052C15.796 8.988 15.678 8.918 15.542 8.842C15.406 8.766 15.246 8.698 15.062 8.638C14.882 8.574 14.668 8.542 14.42 8.542C14.196 8.542 14 8.57 13.832 8.626C13.668 8.678 13.528 8.752 13.412 8.848C13.3 8.944 13.216 9.06 13.16 9.196C13.104 9.328 13.076 9.474 13.076 9.634C13.076 9.838 13.132 10.008 13.244 10.144C13.36 10.28 13.512 10.396 13.7 10.492C13.888 10.588 14.102 10.674 14.342 10.75C14.582 10.826 14.826 10.908 15.074 10.996C15.326 11.08 15.572 11.18 15.812 11.296C16.052 11.408 16.266 11.552 16.454 11.728C16.642 11.9 16.792 12.112 16.904 12.364C17.02 12.616 17.078 12.922 17.078 13.282C17.078 13.674 17.01 14.042 16.874 14.386C16.742 14.726 16.546 15.024 16.286 15.28C16.03 15.532 15.716 15.732 15.344 15.88C14.972 16.024 14.546 16.096 14.066 16.096C13.79 16.096 13.518 16.068 13.25 16.012C12.982 15.96 12.724 15.884 12.476 15.784C12.232 15.684 12.002 15.564 11.786 15.424C11.574 15.284 11.384 15.128 11.216 14.956L11.684 14.182C11.728 14.126 11.78 14.08 11.84 14.044C11.904 14.004 11.974 13.984 12.05 13.984C12.15 13.984 12.258 14.026 12.374 14.11C12.49 14.19 12.626 14.28 12.782 14.38C12.942 14.48 13.128 14.572 13.34 14.656C13.556 14.736 13.814 14.776 14.114 14.776C14.574 14.776 14.93 14.668 15.182 14.452C15.434 14.232 15.56 13.918 15.56 13.51C15.56 13.282 15.502 13.096 15.386 12.952C15.274 12.808 15.124 12.688 14.936 12.592C14.748 12.492 14.534 12.408 14.294 12.34C14.054 12.272 13.81 12.198 13.562 12.118C13.314 12.038 13.07 11.942 12.83 11.83C12.59 11.718 12.376 11.572 12.188 11.392C12 11.212 11.848 10.988 11.732 10.72C11.62 10.448 11.564 10.114 11.564 9.718C11.564 9.402 11.626 9.094 11.75 8.794C11.878 8.494 12.062 8.228 12.302 7.996C12.546 7.764 12.844 7.578 13.196 7.438C13.548 7.298 13.95 7.228 14.402 7.228C14.914 7.228 15.386 7.308 15.818 7.468C16.25 7.628 16.618 7.852 16.922 8.14L16.526 8.902ZM23.0496 16H22.3836C22.2436 16 22.1336 15.98 22.0536 15.94C21.9736 15.896 21.9136 15.81 21.8736 15.682L21.7416 15.244C21.5856 15.384 21.4316 15.508 21.2796 15.616C21.1316 15.72 20.9776 15.808 20.8176 15.88C20.6576 15.952 20.4876 16.006 20.3076 16.042C20.1276 16.078 19.9276 16.096 19.7076 16.096C19.4476 16.096 19.2076 16.062 18.9876 15.994C18.7676 15.922 18.5776 15.816 18.4176 15.676C18.2616 15.536 18.1396 15.362 18.0516 15.154C17.9636 14.946 17.9196 14.704 17.9196 14.428C17.9196 14.196 17.9796 13.968 18.0996 13.744C18.2236 13.516 18.4276 13.312 18.7116 13.132C18.9956 12.948 19.3736 12.796 19.8456 12.676C20.3176 12.556 20.9036 12.488 21.6036 12.472V12.112C21.6036 11.7 21.5156 11.396 21.3396 11.2C21.1676 11 20.9156 10.9 20.5836 10.9C20.3436 10.9 20.1436 10.928 19.9836 10.984C19.8236 11.04 19.6836 11.104 19.5636 11.176C19.4476 11.244 19.3396 11.306 19.2396 11.362C19.1396 11.418 19.0296 11.446 18.9096 11.446C18.8096 11.446 18.7236 11.42 18.6516 11.368C18.5796 11.316 18.5216 11.252 18.4776 11.176L18.2076 10.702C18.9156 10.054 19.7696 9.73 20.7696 9.73C21.1296 9.73 21.4496 9.79 21.7296 9.91C22.0136 10.026 22.2536 10.19 22.4496 10.402C22.6456 10.61 22.7936 10.86 22.8936 11.152C22.9976 11.444 23.0496 11.764 23.0496 12.112V16ZM20.1696 15.076C20.3216 15.076 20.4616 15.062 20.5896 15.034C20.7176 15.006 20.8376 14.964 20.9496 14.908C21.0656 14.852 21.1756 14.784 21.2796 14.704C21.3876 14.62 21.4956 14.522 21.6036 14.41V13.372C21.1716 13.392 20.8096 13.43 20.5176 13.486C20.2296 13.538 19.9976 13.606 19.8216 13.69C19.6456 13.774 19.5196 13.872 19.4436 13.984C19.3716 14.096 19.3356 14.218 19.3356 14.35C19.3356 14.61 19.4116 14.796 19.5636 14.908C19.7196 15.02 19.9216 15.076 20.1696 15.076ZM26.0848 7.084V16H24.6028V7.084H26.0848ZM30.3087 9.748C30.6967 9.748 31.0527 9.81 31.3767 9.934C31.7047 10.058 31.9867 10.24 32.2227 10.48C32.4587 10.716 32.6427 11.008 32.7747 11.356C32.9067 11.7 32.9727 12.094 32.9727 12.538C32.9727 12.65 32.9667 12.744 32.9547 12.82C32.9467 12.892 32.9287 12.95 32.9007 12.994C32.8767 13.034 32.8427 13.064 32.7987 13.084C32.7547 13.1 32.6987 13.108 32.6307 13.108H28.8267C28.8707 13.74 29.0407 14.204 29.3367 14.5C29.6327 14.796 30.0247 14.944 30.5127 14.944C30.7527 14.944 30.9587 14.916 31.1307 14.86C31.3067 14.804 31.4587 14.742 31.5867 14.674C31.7187 14.606 31.8327 14.544 31.9287 14.488C32.0287 14.432 32.1247 14.404 32.2167 14.404C32.2767 14.404 32.3287 14.416 32.3727 14.44C32.4167 14.464 32.4547 14.498 32.4867 14.542L32.9187 15.082C32.7547 15.274 32.5707 15.436 32.3667 15.568C32.1627 15.696 31.9487 15.8 31.7247 15.88C31.5047 15.956 31.2787 16.01 31.0467 16.042C30.8187 16.074 30.5967 16.09 30.3807 16.09C29.9527 16.09 29.5547 16.02 29.1867 15.88C28.8187 15.736 28.4987 15.526 28.2267 15.25C27.9547 14.97 27.7407 14.626 27.5847 14.218C27.4287 13.806 27.3507 13.33 27.3507 12.79C27.3507 12.37 27.4187 11.976 27.5547 11.608C27.6907 11.236 27.8847 10.914 28.1367 10.642C28.3927 10.366 28.7027 10.148 29.0667 9.988C29.4347 9.828 29.8487 9.748 30.3087 9.748ZM30.3387 10.81C29.9067 10.81 29.5687 10.932 29.3247 11.176C29.0807 11.42 28.9247 11.766 28.8567 12.214H31.6407C31.6407 12.022 31.6147 11.842 31.5627 11.674C31.5107 11.502 31.4307 11.352 31.3227 11.224C31.2147 11.096 31.0787 10.996 30.9147 10.924C30.7507 10.848 30.5587 10.81 30.3387 10.81Z" fill="white"/>
</svg>
