<svg width="25" height="24" viewBox="0 0 25 24" fill="none" xmlns="http://www.w3.org/2000/svg">
<path fill-rule="evenodd" clip-rule="evenodd" d="M7.06842 7.46978L6.53809 6.93945L5.47743 8.00011L6.00776 8.53044L8.72743 11.2501H1.53809V12.7501H8.72743L6.00776 15.4698L5.47743 16.0001L6.53809 17.0608L7.06842 16.5304L11.0684 12.5304L11.5987 12.0001L11.0684 11.4698L7.06842 7.46978ZM16.3487 11.2501H23.5381V12.7501H16.3487L19.0684 15.4698L19.5987 16.0001L18.5381 17.0608L18.0078 16.5304L14.0078 12.5304L13.4774 12.0001L14.0078 11.4698L18.0078 7.46978L18.5381 6.93945L19.5987 8.00011L19.0684 8.53044L16.3487 11.2501Z" fill="#1493A4"/>
</svg>
