<svg width="70" height="24" viewBox="0 0 70 24" fill="none" xmlns="http://www.w3.org/2000/svg">
<rect width="70" height="24" rx="4" fill="#EBF4E6"/>
<path d="M12.2755 11.648C12.7235 11.552 13.1355 11.504 13.5115 11.504C13.9595 11.504 14.3555 11.57 14.6995 11.702C15.0435 11.834 15.3295 12.016 15.5575 12.248C15.7895 12.48 15.9635 12.754 16.0795 13.07C16.1995 13.386 16.2595 13.73 16.2595 14.102C16.2595 14.558 16.1795 14.97 16.0195 15.338C15.8635 15.706 15.6455 16.022 15.3655 16.286C15.0895 16.546 14.7635 16.746 14.3875 16.886C14.0115 17.026 13.6055 17.096 13.1695 17.096C12.9175 17.096 12.6755 17.07 12.4435 17.018C12.2115 16.97 11.9935 16.904 11.7895 16.82C11.5895 16.736 11.4035 16.64 11.2315 16.532C11.0595 16.424 10.9075 16.31 10.7755 16.19L11.1055 15.734C11.1775 15.63 11.2715 15.578 11.3875 15.578C11.4675 15.578 11.5575 15.61 11.6575 15.674C11.7575 15.734 11.8795 15.802 12.0235 15.878C12.1675 15.954 12.3355 16.024 12.5275 16.088C12.7235 16.148 12.9555 16.178 13.2235 16.178C13.5235 16.178 13.7935 16.13 14.0335 16.034C14.2735 15.938 14.4795 15.802 14.6515 15.626C14.8235 15.446 14.9555 15.232 15.0475 14.984C15.1395 14.736 15.1855 14.458 15.1855 14.15C15.1855 13.882 15.1455 13.64 15.0655 13.424C14.9895 13.208 14.8715 13.024 14.7115 12.872C14.5555 12.72 14.3595 12.602 14.1235 12.518C13.8875 12.434 13.6115 12.392 13.2955 12.392C13.0795 12.392 12.8535 12.41 12.6175 12.446C12.3855 12.482 12.1475 12.54 11.9035 12.62L11.2315 12.422L11.9215 8.402H15.9955V8.87C15.9955 9.022 15.9475 9.148 15.8515 9.248C15.7595 9.344 15.5995 9.392 15.3715 9.392H12.6715L12.2755 11.648ZM23.6645 12.704C23.6645 13.456 23.5825 14.108 23.4185 14.66C23.2585 15.208 23.0385 15.662 22.7585 16.022C22.4785 16.382 22.1465 16.65 21.7625 16.826C21.3825 17.002 20.9745 17.09 20.5385 17.09C20.0985 17.09 19.6885 17.002 19.3085 16.826C18.9325 16.65 18.6045 16.382 18.3245 16.022C18.0445 15.662 17.8245 15.208 17.6645 14.66C17.5045 14.108 17.4245 13.456 17.4245 12.704C17.4245 11.952 17.5045 11.3 17.6645 10.748C17.8245 10.196 18.0445 9.74 18.3245 9.38C18.6045 9.016 18.9325 8.746 19.3085 8.57C19.6885 8.394 20.0985 8.306 20.5385 8.306C20.9745 8.306 21.3825 8.394 21.7625 8.57C22.1465 8.746 22.4785 9.016 22.7585 9.38C23.0385 9.74 23.2585 10.196 23.4185 10.748C23.5825 11.3 23.6645 11.952 23.6645 12.704ZM22.5545 12.704C22.5545 12.048 22.4985 11.498 22.3865 11.054C22.2785 10.606 22.1305 10.246 21.9425 9.974C21.7585 9.702 21.5445 9.508 21.3005 9.392C21.0565 9.272 20.8025 9.212 20.5385 9.212C20.2745 9.212 20.0205 9.272 19.7765 9.392C19.5325 9.508 19.3185 9.702 19.1345 9.974C18.9505 10.246 18.8025 10.606 18.6905 11.054C18.5825 11.498 18.5285 12.048 18.5285 12.704C18.5285 13.36 18.5825 13.91 18.6905 14.354C18.8025 14.798 18.9505 15.156 19.1345 15.428C19.3185 15.7 19.5325 15.896 19.7765 16.016C20.0205 16.132 20.2745 16.19 20.5385 16.19C20.8025 16.19 21.0565 16.132 21.3005 16.016C21.5445 15.896 21.7585 15.7 21.9425 15.428C22.1305 15.156 22.2785 14.798 22.3865 14.354C22.4985 13.91 22.5545 13.36 22.5545 12.704ZM28.3574 10.478C28.3574 10.814 28.3054 11.116 28.2014 11.384C28.0974 11.648 27.9574 11.872 27.7814 12.056C27.6094 12.236 27.4074 12.374 27.1754 12.47C26.9474 12.566 26.7054 12.614 26.4494 12.614C26.1814 12.614 25.9314 12.566 25.6994 12.47C25.4674 12.374 25.2654 12.236 25.0934 12.056C24.9254 11.872 24.7934 11.648 24.6974 11.384C24.6014 11.116 24.5534 10.814 24.5534 10.478C24.5534 10.134 24.6014 9.828 24.6974 9.56C24.7934 9.292 24.9254 9.066 25.0934 8.882C25.2654 8.698 25.4674 8.558 25.6994 8.462C25.9314 8.366 26.1814 8.318 26.4494 8.318C26.7214 8.318 26.9734 8.366 27.2054 8.462C27.4374 8.558 27.6394 8.698 27.8114 8.882C27.9834 9.066 28.1174 9.292 28.2134 9.56C28.3094 9.828 28.3574 10.134 28.3574 10.478ZM27.5294 10.478C27.5294 10.214 27.5014 9.99 27.4454 9.806C27.3894 9.622 27.3114 9.472 27.2114 9.356C27.1154 9.236 27.0014 9.15 26.8694 9.098C26.7374 9.046 26.5974 9.02 26.4494 9.02C26.3014 9.02 26.1634 9.046 26.0354 9.098C25.9074 9.15 25.7954 9.236 25.6994 9.356C25.6034 9.472 25.5274 9.622 25.4714 9.806C25.4154 9.99 25.3874 10.214 25.3874 10.478C25.3874 10.738 25.4154 10.96 25.4714 11.144C25.5274 11.324 25.6034 11.472 25.6994 11.588C25.7954 11.7 25.9074 11.782 26.0354 11.834C26.1634 11.882 26.3014 11.906 26.4494 11.906C26.5974 11.906 26.7374 11.882 26.8694 11.834C27.0014 11.782 27.1154 11.7 27.2114 11.588C27.3114 11.472 27.3894 11.324 27.4454 11.144C27.5014 10.96 27.5294 10.738 27.5294 10.478ZM31.3994 8.582C31.4394 8.534 31.4854 8.492 31.5374 8.456C31.5934 8.42 31.6674 8.402 31.7594 8.402H32.5334L26.2454 16.826C26.2094 16.878 26.1634 16.92 26.1074 16.952C26.0514 16.984 25.9834 17 25.9034 17H25.1174L31.3994 8.582ZM33.1154 14.972C33.1154 15.308 33.0634 15.608 32.9594 15.872C32.8554 16.136 32.7154 16.36 32.5394 16.544C32.3674 16.724 32.1654 16.862 31.9334 16.958C31.7054 17.054 31.4634 17.102 31.2074 17.102C30.9354 17.102 30.6834 17.054 30.4514 16.958C30.2234 16.862 30.0234 16.724 29.8514 16.544C29.6834 16.36 29.5514 16.136 29.4554 15.872C29.3594 15.608 29.3114 15.308 29.3114 14.972C29.3114 14.628 29.3594 14.322 29.4554 14.054C29.5514 13.782 29.6834 13.554 29.8514 13.37C30.0234 13.186 30.2234 13.046 30.4514 12.95C30.6834 12.854 30.9354 12.806 31.2074 12.806C31.4754 12.806 31.7254 12.854 31.9574 12.95C32.1934 13.046 32.3954 13.186 32.5634 13.37C32.7354 13.554 32.8694 13.782 32.9654 14.054C33.0654 14.322 33.1154 14.628 33.1154 14.972ZM32.2874 14.972C32.2874 14.708 32.2594 14.484 32.2034 14.3C32.1474 14.112 32.0694 13.96 31.9694 13.844C31.8734 13.728 31.7594 13.644 31.6274 13.592C31.4954 13.54 31.3554 13.514 31.2074 13.514C31.0594 13.514 30.9194 13.54 30.7874 13.592C30.6594 13.644 30.5474 13.728 30.4514 13.844C30.3554 13.96 30.2794 14.112 30.2234 14.3C30.1714 14.484 30.1454 14.708 30.1454 14.972C30.1454 15.232 30.1714 15.452 30.2234 15.632C30.2794 15.812 30.3554 15.96 30.4514 16.076C30.5474 16.188 30.6594 16.27 30.7874 16.322C30.9194 16.37 31.0594 16.394 31.2074 16.394C31.3554 16.394 31.4954 16.37 31.6274 16.322C31.7594 16.27 31.8734 16.188 31.9694 16.076C32.0694 15.96 32.1474 15.812 32.2034 15.632C32.2594 15.452 32.2874 15.232 32.2874 14.972ZM45.7588 12.704C45.7588 13.348 45.6568 13.94 45.4528 14.48C45.2488 15.016 44.9608 15.478 44.5888 15.866C44.2168 16.254 43.7688 16.556 43.2448 16.772C42.7248 16.984 42.1488 17.09 41.5168 17.09C40.8848 17.09 40.3088 16.984 39.7888 16.772C39.2688 16.556 38.8228 16.254 38.4508 15.866C38.0788 15.478 37.7908 15.016 37.5868 14.48C37.3828 13.94 37.2808 13.348 37.2808 12.704C37.2808 12.06 37.3828 11.47 37.5868 10.934C37.7908 10.394 38.0788 9.93 38.4508 9.542C38.8228 9.15 39.2688 8.846 39.7888 8.63C40.3088 8.414 40.8848 8.306 41.5168 8.306C42.1488 8.306 42.7248 8.414 43.2448 8.63C43.7688 8.846 44.2168 9.15 44.5888 9.542C44.9608 9.93 45.2488 10.394 45.4528 10.934C45.6568 11.47 45.7588 12.06 45.7588 12.704ZM44.5648 12.704C44.5648 12.176 44.4928 11.702 44.3488 11.282C44.2048 10.862 44.0008 10.508 43.7368 10.22C43.4728 9.928 43.1528 9.704 42.7768 9.548C42.4008 9.392 41.9808 9.314 41.5168 9.314C41.0568 9.314 40.6388 9.392 40.2628 9.548C39.8868 9.704 39.5648 9.928 39.2968 10.22C39.0328 10.508 38.8288 10.862 38.6848 11.282C38.5408 11.702 38.4688 12.176 38.4688 12.704C38.4688 13.232 38.5408 13.706 38.6848 14.126C38.8288 14.542 39.0328 14.896 39.2968 15.188C39.5648 15.476 39.8868 15.698 40.2628 15.854C40.6388 16.006 41.0568 16.082 41.5168 16.082C41.9808 16.082 42.4008 16.006 42.7768 15.854C43.1528 15.698 43.4728 15.476 43.7368 15.188C44.0008 14.896 44.2048 14.542 44.3488 14.126C44.4928 13.706 44.5648 13.232 44.5648 12.704ZM48.5882 9.35V12.356H52.1222V13.304H48.5882V17H47.4242V8.402H52.7222V9.35H48.5882ZM55.3733 9.35V12.356H58.9073V13.304H55.3733V17H54.2093V8.402H59.5073V9.35H55.3733Z" fill="#4CAF50"/>
</svg>
