<svg width="47" height="25" viewBox="0 0 47 25" fill="none" xmlns="http://www.w3.org/2000/svg">
<path d="M0 4C0 1.79086 1.79086 0 4 0H43C45.2091 0 47 1.79086 47 4V21C47 23.2091 45.2091 25 43 25H4C1.79086 25 0 23.2091 0 21V4Z" fill="#5AB0BB"/>
<path d="M12.722 7.324C12.794 7.324 12.854 7.328 12.902 7.336C12.95 7.34 12.992 7.352 13.028 7.372C13.068 7.388 13.106 7.414 13.142 7.45C13.178 7.482 13.218 7.526 13.262 7.582L17.816 13.384C17.8 13.244 17.788 13.108 17.78 12.976C17.776 12.84 17.774 12.714 17.774 12.598V7.324H19.196V16H18.362C18.234 16 18.128 15.98 18.044 15.94C17.96 15.9 17.878 15.828 17.798 15.724L13.262 9.946C13.274 10.074 13.282 10.202 13.286 10.33C13.294 10.454 13.298 10.568 13.298 10.672V16H11.876V7.324H12.722ZM23.4063 9.748C23.7943 9.748 24.1503 9.81 24.4743 9.934C24.8023 10.058 25.0843 10.24 25.3203 10.48C25.5563 10.716 25.7403 11.008 25.8723 11.356C26.0043 11.7 26.0703 12.094 26.0703 12.538C26.0703 12.65 26.0643 12.744 26.0523 12.82C26.0443 12.892 26.0263 12.95 25.9983 12.994C25.9743 13.034 25.9403 13.064 25.8963 13.084C25.8523 13.1 25.7963 13.108 25.7283 13.108H21.9243C21.9683 13.74 22.1383 14.204 22.4343 14.5C22.7303 14.796 23.1223 14.944 23.6103 14.944C23.8503 14.944 24.0563 14.916 24.2283 14.86C24.4043 14.804 24.5563 14.742 24.6843 14.674C24.8163 14.606 24.9303 14.544 25.0263 14.488C25.1263 14.432 25.2223 14.404 25.3143 14.404C25.3743 14.404 25.4263 14.416 25.4703 14.44C25.5143 14.464 25.5523 14.498 25.5843 14.542L26.0163 15.082C25.8523 15.274 25.6683 15.436 25.4643 15.568C25.2603 15.696 25.0463 15.8 24.8223 15.88C24.6023 15.956 24.3763 16.01 24.1443 16.042C23.9163 16.074 23.6943 16.09 23.4783 16.09C23.0503 16.09 22.6523 16.02 22.2843 15.88C21.9163 15.736 21.5963 15.526 21.3243 15.25C21.0523 14.97 20.8383 14.626 20.6823 14.218C20.5263 13.806 20.4483 13.33 20.4483 12.79C20.4483 12.37 20.5163 11.976 20.6523 11.608C20.7883 11.236 20.9823 10.914 21.2343 10.642C21.4903 10.366 21.8003 10.148 22.1643 9.988C22.5323 9.828 22.9463 9.748 23.4063 9.748ZM23.4363 10.81C23.0043 10.81 22.6663 10.932 22.4223 11.176C22.1783 11.42 22.0223 11.766 21.9543 12.214H24.7383C24.7383 12.022 24.7123 11.842 24.6603 11.674C24.6083 11.502 24.5283 11.352 24.4203 11.224C24.3123 11.096 24.1763 10.996 24.0123 10.924C23.8483 10.848 23.6563 10.81 23.4363 10.81ZM26.5225 9.844H27.6985C27.8105 9.844 27.9045 9.87 27.9805 9.922C28.0565 9.974 28.1045 10.04 28.1245 10.12L29.0065 13.408C29.0545 13.588 29.0925 13.764 29.1205 13.936C29.1525 14.108 29.1825 14.28 29.2105 14.452C29.2545 14.28 29.3005 14.108 29.3485 13.936C29.4005 13.764 29.4545 13.588 29.5105 13.408L30.5305 10.108C30.5545 10.028 30.6025 9.962 30.6745 9.91C30.7465 9.858 30.8305 9.832 30.9265 9.832H31.5805C31.6885 9.832 31.7785 9.858 31.8505 9.91C31.9225 9.962 31.9705 10.028 31.9945 10.108L33.0025 13.468C33.0545 13.64 33.1005 13.808 33.1405 13.972C33.1845 14.132 33.2265 14.294 33.2665 14.458C33.2945 14.286 33.3245 14.114 33.3565 13.942C33.3925 13.77 33.4365 13.592 33.4885 13.408L34.4005 10.12C34.4205 10.04 34.4685 9.974 34.5445 9.922C34.6205 9.87 34.7085 9.844 34.8085 9.844H35.9305L33.9805 16H32.7865C32.6585 16 32.5665 15.912 32.5105 15.736L31.4005 12.178C31.3645 12.062 31.3305 11.946 31.2985 11.83C31.2705 11.71 31.2465 11.592 31.2265 11.476C31.2025 11.596 31.1765 11.716 31.1485 11.836C31.1205 11.952 31.0885 12.07 31.0525 12.19L29.9305 15.736C29.8745 15.912 29.7665 16 29.6065 16H28.4725L26.5225 9.844Z" fill="white"/>
</svg>
