<svg width="66" height="25" viewBox="0 0 66 25" fill="none" xmlns="http://www.w3.org/2000/svg">
<path d="M0 4C0 1.79086 1.79086 0 4 0H62C64.2091 0 66 1.79086 66 4V21C66 23.2091 64.2091 25 62 25H4C1.79086 25 0 23.2091 0 21V4Z" fill="#FB8200"/>
<path d="M16.526 8.902C16.482 8.99 16.43 9.052 16.37 9.088C16.314 9.124 16.246 9.142 16.166 9.142C16.086 9.142 15.996 9.112 15.896 9.052C15.796 8.988 15.678 8.918 15.542 8.842C15.406 8.766 15.246 8.698 15.062 8.638C14.882 8.574 14.668 8.542 14.42 8.542C14.196 8.542 14 8.57 13.832 8.626C13.668 8.678 13.528 8.752 13.412 8.848C13.3 8.944 13.216 9.06 13.16 9.196C13.104 9.328 13.076 9.474 13.076 9.634C13.076 9.838 13.132 10.008 13.244 10.144C13.36 10.28 13.512 10.396 13.7 10.492C13.888 10.588 14.102 10.674 14.342 10.75C14.582 10.826 14.826 10.908 15.074 10.996C15.326 11.08 15.572 11.18 15.812 11.296C16.052 11.408 16.266 11.552 16.454 11.728C16.642 11.9 16.792 12.112 16.904 12.364C17.02 12.616 17.078 12.922 17.078 13.282C17.078 13.674 17.01 14.042 16.874 14.386C16.742 14.726 16.546 15.024 16.286 15.28C16.03 15.532 15.716 15.732 15.344 15.88C14.972 16.024 14.546 16.096 14.066 16.096C13.79 16.096 13.518 16.068 13.25 16.012C12.982 15.96 12.724 15.884 12.476 15.784C12.232 15.684 12.002 15.564 11.786 15.424C11.574 15.284 11.384 15.128 11.216 14.956L11.684 14.182C11.728 14.126 11.78 14.08 11.84 14.044C11.904 14.004 11.974 13.984 12.05 13.984C12.15 13.984 12.258 14.026 12.374 14.11C12.49 14.19 12.626 14.28 12.782 14.38C12.942 14.48 13.128 14.572 13.34 14.656C13.556 14.736 13.814 14.776 14.114 14.776C14.574 14.776 14.93 14.668 15.182 14.452C15.434 14.232 15.56 13.918 15.56 13.51C15.56 13.282 15.502 13.096 15.386 12.952C15.274 12.808 15.124 12.688 14.936 12.592C14.748 12.492 14.534 12.408 14.294 12.34C14.054 12.272 13.81 12.198 13.562 12.118C13.314 12.038 13.07 11.942 12.83 11.83C12.59 11.718 12.376 11.572 12.188 11.392C12 11.212 11.848 10.988 11.732 10.72C11.62 10.448 11.564 10.114 11.564 9.718C11.564 9.402 11.626 9.094 11.75 8.794C11.878 8.494 12.062 8.228 12.302 7.996C12.546 7.764 12.844 7.578 13.196 7.438C13.548 7.298 13.95 7.228 14.402 7.228C14.914 7.228 15.386 7.308 15.818 7.468C16.25 7.628 16.618 7.852 16.922 8.14L16.526 8.902ZM20.8536 9.748C21.3136 9.748 21.7296 9.822 22.1016 9.97C22.4776 10.118 22.7976 10.328 23.0616 10.6C23.3256 10.872 23.5296 11.204 23.6736 11.596C23.8176 11.988 23.8896 12.426 23.8896 12.91C23.8896 13.398 23.8176 13.838 23.6736 14.23C23.5296 14.622 23.3256 14.956 23.0616 15.232C22.7976 15.508 22.4776 15.72 22.1016 15.868C21.7296 16.016 21.3136 16.09 20.8536 16.09C20.3936 16.09 19.9756 16.016 19.5996 15.868C19.2236 15.72 18.9016 15.508 18.6336 15.232C18.3696 14.956 18.1636 14.622 18.0156 14.23C17.8716 13.838 17.7996 13.398 17.7996 12.91C17.7996 12.426 17.8716 11.988 18.0156 11.596C18.1636 11.204 18.3696 10.872 18.6336 10.6C18.9016 10.328 19.2236 10.118 19.5996 9.97C19.9756 9.822 20.3936 9.748 20.8536 9.748ZM20.8536 14.95C21.3656 14.95 21.7436 14.778 21.9876 14.434C22.2356 14.09 22.3596 13.586 22.3596 12.922C22.3596 12.258 22.2356 11.752 21.9876 11.404C21.7436 11.056 21.3656 10.882 20.8536 10.882C20.3336 10.882 19.9496 11.058 19.7016 11.41C19.4536 11.758 19.3296 12.262 19.3296 12.922C19.3296 13.582 19.4536 14.086 19.7016 14.434C19.9496 14.778 20.3336 14.95 20.8536 14.95ZM26.6239 7.084V16H25.1419V7.084H26.6239ZM32.6357 16C32.4437 16 32.3177 15.91 32.2577 15.73L32.1377 15.136C32.0097 15.28 31.8757 15.41 31.7357 15.526C31.5957 15.642 31.4437 15.742 31.2797 15.826C31.1197 15.91 30.9457 15.974 30.7577 16.018C30.5737 16.066 30.3737 16.09 30.1577 16.09C29.8217 16.09 29.5137 16.02 29.2337 15.88C28.9537 15.74 28.7117 15.538 28.5077 15.274C28.3077 15.006 28.1517 14.676 28.0397 14.284C27.9317 13.892 27.8777 13.444 27.8777 12.94C27.8777 12.484 27.9397 12.06 28.0637 11.668C28.1877 11.276 28.3657 10.936 28.5977 10.648C28.8297 10.36 29.1077 10.136 29.4317 9.976C29.7557 9.812 30.1197 9.73 30.5237 9.73C30.8677 9.73 31.1617 9.786 31.4057 9.898C31.6497 10.006 31.8677 10.152 32.0597 10.336V7.084H33.5417V16H32.6357ZM30.6617 14.914C30.9697 14.914 31.2317 14.85 31.4477 14.722C31.6637 14.594 31.8677 14.412 32.0597 14.176V11.416C31.8917 11.212 31.7077 11.068 31.5077 10.984C31.3117 10.9 31.0997 10.858 30.8717 10.858C30.6477 10.858 30.4437 10.9 30.2597 10.984C30.0797 11.068 29.9257 11.196 29.7977 11.368C29.6737 11.536 29.5777 11.752 29.5097 12.016C29.4417 12.276 29.4077 12.584 29.4077 12.94C29.4077 13.3 29.4357 13.606 29.4917 13.858C29.5517 14.106 29.6357 14.31 29.7437 14.47C29.8517 14.626 29.9837 14.74 30.1397 14.812C30.2957 14.88 30.4697 14.914 30.6617 14.914ZM40.0958 9.748C40.5558 9.748 40.9718 9.822 41.3438 9.97C41.7198 10.118 42.0398 10.328 42.3038 10.6C42.5678 10.872 42.7718 11.204 42.9158 11.596C43.0598 11.988 43.1318 12.426 43.1318 12.91C43.1318 13.398 43.0598 13.838 42.9158 14.23C42.7718 14.622 42.5678 14.956 42.3038 15.232C42.0398 15.508 41.7198 15.72 41.3438 15.868C40.9718 16.016 40.5558 16.09 40.0958 16.09C39.6358 16.09 39.2178 16.016 38.8418 15.868C38.4658 15.72 38.1438 15.508 37.8758 15.232C37.6118 14.956 37.4058 14.622 37.2578 14.23C37.1138 13.838 37.0418 13.398 37.0418 12.91C37.0418 12.426 37.1138 11.988 37.2578 11.596C37.4058 11.204 37.6118 10.872 37.8758 10.6C38.1438 10.328 38.4658 10.118 38.8418 9.97C39.2178 9.822 39.6358 9.748 40.0958 9.748ZM40.0958 14.95C40.6078 14.95 40.9858 14.778 41.2298 14.434C41.4778 14.09 41.6018 13.586 41.6018 12.922C41.6018 12.258 41.4778 11.752 41.2298 11.404C40.9858 11.056 40.6078 10.882 40.0958 10.882C39.5758 10.882 39.1918 11.058 38.9438 11.41C38.6958 11.758 38.5718 12.262 38.5718 12.922C38.5718 13.582 38.6958 14.086 38.9438 14.434C39.1918 14.778 39.5758 14.95 40.0958 14.95ZM45.6441 9.844V13.756C45.6441 14.132 45.7301 14.424 45.9021 14.632C46.0781 14.836 46.3401 14.938 46.6881 14.938C46.9441 14.938 47.1841 14.882 47.4081 14.77C47.6321 14.654 47.8441 14.496 48.0441 14.296V9.844H49.5261V16H48.6201C48.4281 16 48.3021 15.91 48.2421 15.73L48.1401 15.238C48.0121 15.366 47.8801 15.484 47.7441 15.592C47.6081 15.696 47.4621 15.786 47.3061 15.862C47.1541 15.934 46.9881 15.99 46.8081 16.03C46.6321 16.074 46.4421 16.096 46.2381 16.096C45.9021 16.096 45.6041 16.04 45.3441 15.928C45.0881 15.812 44.8721 15.65 44.6961 15.442C44.5201 15.234 44.3861 14.988 44.2941 14.704C44.2061 14.416 44.1621 14.1 44.1621 13.756V9.844H45.6441ZM53.1304 16.096C52.5984 16.096 52.1884 15.946 51.9004 15.646C51.6124 15.342 51.4684 14.924 51.4684 14.392V10.954H50.8444C50.7644 10.954 50.6944 10.928 50.6344 10.876C50.5784 10.824 50.5504 10.746 50.5504 10.642V10.054L51.5404 9.892L51.8524 8.212C51.8684 8.132 51.9044 8.07 51.9604 8.026C52.0204 7.982 52.0944 7.96 52.1824 7.96H52.9504V9.898H54.5704V10.954H52.9504V14.29C52.9504 14.482 52.9984 14.632 53.0944 14.74C53.1904 14.848 53.3184 14.902 53.4784 14.902C53.5704 14.902 53.6464 14.892 53.7064 14.872C53.7704 14.848 53.8244 14.824 53.8684 14.8C53.9164 14.776 53.9584 14.754 53.9944 14.734C54.0304 14.71 54.0664 14.698 54.1024 14.698C54.1464 14.698 54.1824 14.71 54.2104 14.734C54.2384 14.754 54.2684 14.786 54.3004 14.83L54.7444 15.55C54.5284 15.73 54.2804 15.866 54.0004 15.958C53.7204 16.05 53.4304 16.096 53.1304 16.096Z" fill="white"/>
</svg>
