<svg width="25" height="24" viewBox="0 0 25 24" fill="none" xmlns="http://www.w3.org/2000/svg">
<path d="M19.0381 21C19.8665 21 20.5381 20.3284 20.5381 19.5C20.5381 18.6716 19.8665 18 19.0381 18C18.2097 18 17.5381 18.6716 17.5381 19.5C17.5381 20.3284 18.2097 21 19.0381 21Z" fill="#1493A4" stroke="#1493A4" stroke-width="1.5" stroke-linecap="round" stroke-linejoin="round"/>
<path d="M11.0381 21C11.8665 21 12.5381 20.3284 12.5381 19.5C12.5381 18.6716 11.8665 18 11.0381 18C10.2097 18 9.53809 18.6716 9.53809 19.5C9.53809 20.3284 10.2097 21 11.0381 21Z" fill="#1493A4" stroke="#1493A4" stroke-width="1.5" stroke-linecap="round" stroke-linejoin="round"/>
<path d="M6.23809 4.69231H21.5381L19.7381 14H8.03809L6.23809 4.69231ZM6.23809 4.69231C6.08809 4.12821 5.33809 3 3.53809 3" stroke="#1493A4" stroke-width="1.5" stroke-linecap="round" stroke-linejoin="round"/>
<path d="M19.5381 14H7.65237H6.03479C4.40343 14 3.53809 14.7812 3.53809 16C3.53809 17.2188 4.40343 18 6.03479 18H19.0809" stroke="#1493A4" stroke-width="1.5" stroke-linecap="round" stroke-linejoin="round"/>
</svg>
